<?xml version="1.0" encoding="UTF-8"?>
<svg xmlns="http://www.w3.org/2000/svg" viewBox="0 0 200 200" width="200" height="200">
  <!-- Background circle -->
  <circle cx="100" cy="100" r="95" fill="#3d4a5c"/>
  
  <!-- Border circle -->
  <circle cx="100" cy="100" r="74" fill="none" stroke="#4A90E2" stroke-width="3"/>
  
  <!-- Organic curved chromosome X -->
  <g transform="translate(100, 100)">
    <!-- Left chromatid (curved diagonal) -->
    <!-- Top-left arm -->
    <path d="M -28,-58 Q -30,-40 -32,-22 Q -34,-10 -28,-2" fill="#85c1e9" stroke="#5dade2" stroke-width="1.5"/>
    <path d="M -12,-58 Q -14,-40 -16,-22 Q -18,-10 -12,-2" fill="#85c1e9" stroke="#5dade2" stroke-width="1.5"/>
    
    <!-- G-bands on top-left -->
    <ellipse cx="-20" cy="-54" rx="8" ry="3" fill="#5dade2" opacity="0.8" transform="rotate(-10 -20 -54)"/>
    <ellipse cx="-20" cy="-45" rx="8" ry="2.5" fill="#3498db" opacity="0.7" transform="rotate(-10 -20 -45)"/>
    <ellipse cx="-21" cy="-36" rx="8" ry="3" fill="#5dade2" opacity="0.8" transform="rotate(-12 -21 -36)"/>
    <ellipse cx="-22" cy="-27" rx="8" ry="2.5" fill="#3498db" opacity="0.7" transform="rotate(-12 -22 -27)"/>
    <ellipse cx="-23" cy="-18" rx="8" ry="3" fill="#5dade2" opacity="0.8" transform="rotate(-15 -23 -18)"/>
    
    <!-- Telomere top-left -->
    <ellipse cx="-20" cy="-58" rx="10" ry="7" fill="#ff6b9d" transform="rotate(-10 -20 -58)"/>
    
    <!-- CNV segments -->
    <rect x="-30" y="-52" width="6" height="16" fill="#4A90E2" opacity="0.95" rx="2" transform="rotate(-10 -27 -44)"/>
    <rect x="-14" y="-38" width="6" height="14" fill="#E91E63" opacity="0.95" rx="2" transform="rotate(-12 -11 -31)"/>
    
    <!-- Bottom-right arm -->
    <path d="M -12,2 Q -6,14 0,26 Q 6,38 12,54" fill="#85c1e9" stroke="#5dade2" stroke-width="1.5"/>
    <path d="M 4,2 Q 10,14 16,26 Q 22,38 28,54" fill="#85c1e9" stroke="#5dade2" stroke-width="1.5"/>
    
    <!-- G-bands on bottom-right -->
    <ellipse cx="8" cy="18" rx="8" ry="3" fill="#5dade2" opacity="0.8" transform="rotate(12 8 18)"/>
    <ellipse cx="10" cy="27" rx="8" ry="2.5" fill="#3498db" opacity="0.7" transform="rotate(15 10 27)"/>
    <ellipse cx="12" cy="36" rx="8" ry="3" fill="#5dade2" opacity="0.8" transform="rotate(15 12 36)"/>
    <ellipse cx="14" cy="45" rx="8" ry="2.5" fill="#3498db" opacity="0.7" transform="rotate(18 14 45)"/>
    
    <!-- Telomere bottom-right -->
    <ellipse cx="20" cy="54" rx="10" ry="7" fill="#ff6b9d" transform="rotate(15 20 54)"/>
    
    <!-- CNV segments -->
    <rect x="2" y="14" width="6" height="14" fill="#4A90E2" opacity="0.95" rx="2" transform="rotate(12 5 21)"/>
    <rect x="16" y="34" width="6" height="16" fill="#E91E63" opacity="0.95" rx="2" transform="rotate(15 19 42)"/>
    
    <!-- Right chromatid (curved diagonal) -->
    <!-- Top-right arm -->
    <path d="M 12,-58 Q 14,-40 16,-22 Q 18,-10 12,-2" fill="#85c1e9" stroke="#5dade2" stroke-width="1.5"/>
    <path d="M 28,-58 Q 30,-40 32,-22 Q 34,-10 28,-2" fill="#85c1e9" stroke="#5dade2" stroke-width="1.5"/>
    
    <!-- G-bands on top-right -->
    <ellipse cx="20" cy="-54" rx="8" ry="3" fill="#5dade2" opacity="0.8" transform="rotate(10 20 -54)"/>
    <ellipse cx="20" cy="-45" rx="8" ry="2.5" fill="#3498db" opacity="0.7" transform="rotate(10 20 -45)"/>
    <ellipse cx="21" cy="-36" rx="8" ry="3" fill="#5dade2" opacity="0.8" transform="rotate(12 21 -36)"/>
    <ellipse cx="22" cy="-27" rx="8" ry="2.5" fill="#3498db" opacity="0.7" transform="rotate(12 22 -27)"/>
    <ellipse cx="23" cy="-18" rx="8" ry="3" fill="#5dade2" opacity="0.8" transform="rotate(15 23 -18)"/>
    
    <!-- Telomere top-right -->
    <ellipse cx="20" cy="-58" rx="10" ry="7" fill="#ff6b9d" transform="rotate(10 20 -58)"/>
    
    <!-- CNV segments -->
    <rect x="14" y="-52" width="6" height="16" fill="#4A90E2" opacity="0.95" rx="2" transform="rotate(10 17 -44)"/>
    <rect x="24" y="-38" width="6" height="14" fill="#E91E63" opacity="0.95" rx="2" transform="rotate(12 27 -31)"/>
    
    <!-- Bottom-left arm -->
    <path d="M 12,2 Q 6,14 0,26 Q -6,38 -12,54" fill="#85c1e9" stroke="#5dade2" stroke-width="1.5"/>
    <path d="M -4,2 Q -10,14 -16,26 Q -22,38 -28,54" fill="#85c1e9" stroke="#5dade2" stroke-width="1.5"/>
    
    <!-- G-bands on bottom-left -->
    <ellipse cx="-8" cy="18" rx="8" ry="3" fill="#5dade2" opacity="0.8" transform="rotate(-12 -8 18)"/>
    <ellipse cx="-10" cy="27" rx="8" ry="2.5" fill="#3498db" opacity="0.7" transform="rotate(-15 -10 27)"/>
    <ellipse cx="-12" cy="36" rx="8" ry="3" fill="#5dade2" opacity="0.8" transform="rotate(-15 -12 36)"/>
    <ellipse cx="-14" cy="45" rx="8" ry="2.5" fill="#3498db" opacity="0.7" transform="rotate(-18 -14 45)"/>
    
    <!-- Telomere bottom-left -->
    <ellipse cx="-20" cy="54" rx="10" ry="7" fill="#ff6b9d" transform="rotate(-15 -20 54)"/>
    
    <!-- CNV segments -->
    <rect x="-18" y="14" width="6" height="14" fill="#4A90E2" opacity="0.95" rx="2" transform="rotate(-12 -15 21)"/>
    <rect x="-8" y="34" width="6" height="16" fill="#E91E63" opacity="0.95" rx="2" transform="rotate(-15 -5 42)"/>
    
    <!-- Centromere (oval constriction) -->
    <ellipse cx="0" cy="0" rx="14" ry="8" fill="#9b59b6"/>
    <ellipse cx="0" cy="0" rx="10" ry="6" fill="#8e44ad"/>
  </g>
  
  <!-- Text: MCNV2 -->
  <text x="100" y="178" font-family="Arial, sans-serif" font-size="28" font-weight="bold" fill="#ffffff" text-anchor="middle">
    MCNV2
  </text>
</svg>
